<svg width="147" height="29" viewBox="0 0 147 29" fill="none" xmlns="http://www.w3.org/2000/svg">
<path d="M10.6561 28.11C14.4306 28.11 17.7254 26.1498 19.4354 23.126L15.077 20.6653C14.3054 22.2293 12.6371 23.1886 10.6144 23.1886C9.09204 23.1886 7.86169 22.6881 6.88158 21.7288C5.90146 20.7278 5.40097 19.4558 5.40097 17.9752C5.40097 14.9097 7.61144 12.7201 10.6144 12.7201C12.5954 12.7201 14.2637 13.721 15.0353 15.2851L19.352 12.7826C17.7671 9.75886 14.4097 7.84033 10.6561 7.84033C7.73657 7.84033 5.2967 8.7996 3.31561 10.7598C1.37623 12.7201 0.396118 15.0974 0.396118 17.9752C0.396118 20.853 1.37623 23.2303 3.31561 25.1905C5.2967 27.1507 7.73657 28.11 10.6561 28.11Z" fill="#1F2933"/>
<path d="M38.3287 25.1905C40.3098 23.2303 41.3108 20.8113 41.3108 17.9752C41.3108 15.1391 40.3098 12.7618 38.3287 10.8015C36.3476 8.8413 33.9078 7.84033 31.03 7.84033C28.1522 7.84033 25.7123 8.8413 23.7312 10.8015C21.7501 12.7618 20.77 15.1391 20.77 17.9752C20.77 20.8113 21.7501 23.2303 23.7312 25.1905C25.7123 27.1507 28.1522 28.11 31.03 28.11C33.9078 28.11 36.3476 27.1507 38.3287 25.1905ZM27.2555 21.7914C26.2754 20.7904 25.7749 19.5183 25.7749 17.996C25.7749 16.4737 26.2754 15.2016 27.2555 14.2007C28.2564 13.1997 29.5077 12.6992 31.03 12.6992C32.5523 12.6992 33.7826 13.1997 34.8045 14.2007C35.8054 15.2016 36.3268 16.4737 36.3268 17.996C36.3268 19.5183 35.8263 20.7904 34.8045 21.7914C33.8035 22.7923 32.5523 23.2928 31.03 23.2928C29.5077 23.272 28.2773 22.7715 27.2555 21.7914Z" fill="#1F2933"/>
<path d="M55.2408 7.86157C52.5924 7.86157 50.653 8.73742 49.4435 10.5517V8.40376H44.4387V27.589H49.4435V17.2248C49.4435 14.0342 51.1118 12.4702 53.7185 12.4702C56.0541 12.4702 57.5555 13.8465 57.5555 16.4324V27.589H62.5604V15.8068C62.5604 13.3043 61.8514 11.3858 60.4542 9.96778C59.1195 8.54974 57.3679 7.86157 55.2408 7.86157Z" fill="#1F2933"/>
<path d="M77.5541 8.38311H73.154V3.96216H68.1492V8.38311H64.7709V13.1377H68.1492V21.1246C68.1492 26.3797 70.6725 28.34 77.5541 27.5684V23.0849C74.6764 23.2309 73.154 23.21 73.154 21.1246V13.1377H77.5541V8.38311Z" fill="#1F2933"/>
<path d="M146.579 8.38311H142.179V3.96216H137.174V8.38311H133.796V13.1377H137.174V21.1246C137.174 26.3797 139.697 28.34 146.579 27.5684V23.0849C143.701 23.2309 142.179 23.21 142.179 21.1246V13.1377H146.579V8.38311Z" fill="#1F2933"/>
<path d="M83.5807 6.08924C85.2907 6.08924 86.6879 4.7129 86.6879 3.06547C86.6879 1.41804 85.2907 0 83.5807 0C81.9124 0 80.5152 1.41804 80.5152 3.06547C80.4944 4.7129 81.8916 6.08924 83.5807 6.08924ZM86.104 27.5684V8.38313H81.0991V27.5684H86.104Z" fill="#1F2933"/>
<path d="M105.039 10.6559C103.517 8.77913 101.431 7.86157 98.6997 7.86157C96.093 7.86157 93.8825 8.86254 92.0265 10.8228C90.1914 12.783 89.2739 15.1603 89.2739 17.9964C89.2739 20.8325 90.2123 23.2515 92.0265 25.2117C93.8825 27.172 96.1138 28.1312 98.6997 28.1312C101.411 28.1312 103.517 27.2137 105.039 25.3369V27.6099H110.044V8.42462H105.039V10.6559ZM95.7802 21.896C94.7792 20.8533 94.2578 19.5604 94.2578 17.9756C94.2578 16.4115 94.7583 15.0978 95.7802 14.0968C96.7811 13.0541 98.0741 12.5536 99.6172 12.5536C101.181 12.5536 102.453 13.0541 103.454 14.0968C104.497 15.0978 105.018 16.3907 105.018 17.9756C105.018 19.5396 104.518 20.8533 103.454 21.896C102.453 22.897 101.16 23.3975 99.6172 23.3975C98.0741 23.3975 96.802 22.897 95.7802 21.896Z" fill="#1F2933"/>
<path d="M124.767 7.86157C122.118 7.86157 120.179 8.73742 118.969 10.5517V8.40376H113.964V27.589H118.969V17.2248C118.969 14.0342 120.638 12.4702 123.244 12.4702C125.58 12.4702 127.081 13.8465 127.081 16.4324V27.589H132.086V15.8068C132.086 13.3043 131.377 11.3858 129.98 9.96778C128.645 8.54974 126.894 7.86157 124.767 7.86157Z" fill="#1F2933"/>
</svg>
